<svg width="123" height="121" viewBox="0 0 123 121" fill="none" xmlns="http://www.w3.org/2000/svg">
<g clip-path="url(#clip0_135_40)">
<mask id="mask0_135_40" style="mask-type:luminance" maskUnits="userSpaceOnUse" x="21" y="0" width="85" height="84">
<path d="M66.84 59.92C64.23 59.29 64.12 49.92 64.18 47.27C63.9901 47.1252 63.8128 46.9647 63.65 46.79C63.4474 46.9024 63.2649 47.0477 63.11 47.22C63.27 49.72 63.54 58 61 59C56.42 60.86 57.59 62.19 54 62.35C53.2326 62.3136 52.4657 62.4311 51.7444 62.6956C51.0231 62.9601 50.362 63.3662 49.8 63.89C51.6757 65.0617 53.6915 65.9924 55.8 66.66C60.9102 68.2201 66.3697 68.2201 71.48 66.66C73.5884 65.9924 75.6043 65.0617 77.48 63.89C76.9403 63.3346 76.2826 62.9078 75.5555 62.6412C74.8285 62.3746 74.0507 62.2751 73.28 62.35C69.82 62.56 71.68 61.13 66.9 59.9M79.65 18.66C79.0699 20.9641 78.0809 23.1454 76.73 25.1C73.73 29.72 69.07 34.51 63.65 39.24C58.17 34.51 53.49 29.72 50.51 25.1C49.1591 23.1454 48.17 20.9641 47.59 18.66C47.2307 17.2557 47.1559 15.7937 47.37 14.36C47.4966 13.6118 47.7079 12.8804 48 12.18C49.1979 9.54685 51.2628 7.40429 53.85 6.11C56.0617 4.89963 58.4923 4.14157 61 3.88C61.74 3.88 62.49 3.78 63.23 3.78H64C64.74 3.78 65.49 3.83 66.18 3.88C68.7164 4.12486 71.1763 4.88361 73.41 6.11C75.9928 7.4102 78.056 9.55098 79.26 12.18C79.5349 12.8825 79.7295 13.6138 79.84 14.36C74.9536 11.4176 69.3539 9.87159 63.65 9.89C58.7975 9.89011 54.0091 10.9983 49.65 13.13C49.1395 14.5633 49.0289 16.1086 49.33 17.6C53.9627 14.857 59.2845 13.499 64.6651 13.6869C70.0457 13.8747 75.2598 15.6006 79.69 18.66H79.65ZM64.34 0H63C62.42 0 61.78 0 61.2 0.05C60.2 0.11 59.2 0.21 58.2 0.37C57.7889 0.429809 57.3862 0.537196 57 0.69C55.5896 1.07846 54.2173 1.5939 52.9 2.23C50.1062 3.57906 47.6984 5.61193 45.9 8.14C45.3527 8.95909 44.8871 9.82993 44.51 10.74C43.6842 12.7422 43.3416 14.9107 43.51 17.07C42.72 17.76 41.92 18.45 41.12 19.2C35.1576 25.17 31.8085 33.2625 31.8085 41.7C31.8085 50.1375 35.1576 58.23 41.12 64.2C41.366 64.3954 41.5967 64.6093 41.81 64.84L41.92 64.36C42.1529 63.0963 42.5148 61.8599 43 60.67C38.0955 55.3447 35.4444 48.3267 35.6029 41.0887C35.7613 33.8508 38.7171 26.9556 43.85 21.85L44.44 21.27C45.1767 23.3452 46.1569 25.3256 47.36 27.17C50.46 32 55.24 36.9 60.77 41.74C55.24 46.63 50.46 51.52 47.32 56.36C46.1432 58.1764 45.1802 60.1226 44.45 62.16C43.9182 63.5052 43.5815 64.9195 43.45 66.36C43.2565 68.5527 43.5997 70.7596 44.45 72.79C44.7925 73.6321 45.2214 74.4364 45.73 75.19C42.4417 73.3926 39.4138 71.1554 36.73 68.54C29.6165 61.4251 25.6202 51.776 25.6202 41.715C25.6202 31.654 29.6165 22.0049 36.73 14.89C38.543 13.0432 40.5553 11.4032 42.73 10L42.84 9.84C43.6474 7.84033 44.8594 6.02911 46.4 4.52C46.9643 3.94407 47.5692 3.40937 48.21 2.92C42.896 4.99764 38.0784 8.16962 34.07 12.23C28.5299 17.7667 24.662 24.7524 22.9097 32.3864C21.1574 40.0203 21.5916 47.9935 24.1625 55.3921C26.7334 62.7906 31.337 69.315 37.4455 74.2174C43.554 79.1198 50.9203 82.2017 58.7 83.11C60.3273 83.4448 61.9909 83.5691 63.65 83.48C65.2891 83.567 66.9326 83.4426 68.54 83.11C69.1712 82.9971 69.793 82.8367 70.4 82.63C71.7814 82.2516 73.1215 81.7357 74.4 81.09C77.2011 79.7568 79.6118 77.7249 81.4 75.19C81.9281 74.45 82.3552 73.6429 82.67 72.79C83.525 70.7609 83.8684 68.5529 83.67 66.36C84.47 65.67 85.27 64.92 86.07 64.18C92.0324 58.21 95.3814 50.1175 95.3814 41.68C95.3814 33.2425 92.0324 25.15 86.07 19.18C85.85 18.96 85.59 18.75 85.38 18.54L85.27 19.12C85.0333 20.3513 84.6989 21.5618 84.27 22.74C88.9829 27.9193 91.5994 34.6674 91.61 41.67C91.62 45.3566 90.8966 49.0083 89.4819 52.4127C88.0673 55.8171 85.9897 58.9061 83.37 61.5C83.15 61.71 82.94 61.93 82.73 62.14C81.9998 60.1026 81.0367 58.1564 79.86 56.34C76.78 51.52 72 46.63 66.46 41.74C72 36.9 76.78 32 79.92 27.17C81.1231 25.3256 82.1032 23.3452 82.84 21.27C83.3144 19.9131 83.6168 18.5021 83.74 17.07C83.9133 14.9106 83.5705 12.7409 82.74 10.74C82.3663 9.83019 81.9041 8.95933 81.36 8.14C84.7039 9.93319 87.7665 12.2074 90.45 14.89C93.9746 18.4116 96.7707 22.5933 98.6784 27.1961C100.586 31.7989 101.568 36.7325 101.568 41.715C101.568 46.6975 100.586 51.6311 98.6784 56.2339C96.7707 60.8367 93.9746 65.0184 90.45 68.54C88.6439 70.3219 86.6678 71.9229 84.55 73.32L84.5 73.48C83.6556 75.4599 82.4482 77.2643 80.94 78.8C80.3303 79.3921 79.6822 79.9433 79 80.45C87.8097 76.9399 95.1607 70.5332 99.8415 62.2857C104.522 54.0382 106.254 44.442 104.75 35.0787C103.247 25.7155 98.5981 17.1438 91.5705 10.7763C84.5429 4.40884 75.5557 0.625574 66.09 0.05C65.51 0 64.92 0 64.34 0ZM63.65 44.24C69.07 49.02 73.75 53.81 76.73 58.38C78.0193 60.3294 79.0039 62.4639 79.65 64.71C80.0212 66.1083 80.113 67.5662 79.92 69C79.8039 69.8034 79.5889 70.5893 79.28 71.34C77.9369 74.1483 75.6607 76.4033 72.84 77.72C71.3599 78.4527 69.7897 78.9873 68.17 79.31C66.672 79.511 65.1612 79.6012 63.65 79.58C62.1187 79.603 60.5879 79.5127 59.07 79.31C57.4474 78.986 55.8741 78.4515 54.39 77.72C51.5922 76.3976 49.3355 74.1515 48 71.36C47.6757 70.6048 47.4473 69.812 47.32 69C52.2516 71.9623 57.8971 73.525 63.65 73.52C68.5096 73.5221 73.3029 72.3922 77.65 70.22C78.1355 68.8097 78.256 67.2994 78 65.83C73.3683 68.5847 68.0401 69.9443 62.6549 69.7456C57.2696 69.5469 52.0561 67.7985 47.64 64.71C48.286 62.4639 49.2707 60.3294 50.56 58.38C53.49 53.81 58.17 49 63.65 44.24ZM57.53 30.84C59.39 32.84 61.41 34.77 63.65 36.74C65.83 34.74 67.9 32.81 69.76 30.84C71.6088 28.8756 73.3132 26.7801 74.86 24.57C70.35 20.95 67.15 21.75 61.78 24.88C58.01 27.01 55.19 26.75 53.22 25.74C54.56 27.5194 55.9989 29.2221 57.53 30.84Z" fill="white"/>
</mask>
<g mask="url(#mask0_135_40)">
<path d="M105.34 0H21.91V83.59H105.34V0Z" fill="url(#paint0_linear_135_40)"/>
</g>
<path d="M14.7489 110.306C14.7489 111.696 14.255 112.735 13.2671 113.425C12.2792 114.102 10.964 114.441 9.32143 114.441C8.36804 114.441 7.52951 114.338 6.80585 114.131C6.08219 113.913 5.55955 113.643 5.23792 113.321C5.13454 113.069 5.08285 112.799 5.08285 112.511C5.08285 112.213 5.10582 111.926 5.15177 111.65C5.27812 110.972 5.49063 110.444 5.78928 110.065H5.94435C5.93286 110.134 5.92712 110.208 5.92712 110.289C5.92712 111.139 6.26023 111.903 6.92646 112.58C7.60417 113.247 8.52311 113.58 9.68326 113.58C10.4644 113.58 11.0617 113.419 11.4752 113.097C11.9002 112.764 12.1127 112.391 12.1127 111.977C12.1127 111.552 11.9691 111.19 11.6819 110.892C11.3948 110.593 10.9296 110.295 10.2863 109.996L7.47782 108.686C6.68524 108.33 6.11091 107.831 5.75482 107.187C5.46765 106.682 5.32407 106.125 5.32407 105.516C5.32407 104.276 5.74333 103.334 6.58186 102.69C7.28255 102.162 8.21297 101.898 9.37312 101.898C10.1312 101.898 11.1019 101.955 12.285 102.07H13.6289L13.2499 104.879H13.0776C13.0776 104.247 12.8306 103.736 12.3367 103.345C11.8428 102.955 11.211 102.759 10.4414 102.759C9.68326 102.759 9.0917 102.891 8.66669 103.156C8.25317 103.42 8.02918 103.77 7.99472 104.207C7.94877 104.746 8.29337 105.206 9.02852 105.585C9.15487 105.654 9.32143 105.729 9.52819 105.809L12.7502 107.308C14.0827 107.917 14.7489 108.916 14.7489 110.306ZM28.7833 102.311H28.542C28.1974 102.311 27.8643 102.409 27.5427 102.604C27.2326 102.799 26.9856 103.041 26.8018 103.328L23.4247 108.652V112.942C23.4247 113.241 23.5281 113.499 23.7349 113.718C23.9531 113.924 24.2173 114.028 24.5274 114.028H24.7342V114.2H18.5659V114.028H18.7899C19.0885 114.028 19.3412 113.924 19.548 113.718C19.7662 113.511 19.8811 113.258 19.8926 112.959V108.652L16.6016 103.293C16.3145 102.845 15.9182 102.547 15.4128 102.397C15.2405 102.34 15.0682 102.311 14.8959 102.311H14.6547V102.139H21.3054V102.311H21.0987C20.846 102.311 20.6507 102.426 20.5129 102.656C20.4324 102.782 20.3922 102.909 20.3922 103.035C20.3922 103.15 20.4267 103.265 20.4956 103.38L22.8561 107.635L25.3028 103.38C25.3717 103.265 25.4062 103.15 25.4062 103.035C25.4062 102.92 25.366 102.799 25.2856 102.673C25.1362 102.432 24.941 102.311 24.6997 102.311H24.493V102.139H28.7833V102.311ZM42.49 102.311C42.2028 102.311 41.9559 102.415 41.7491 102.621C41.5423 102.817 41.4332 103.058 41.4217 103.345V112.236C41.4217 113.086 41.4792 113.741 41.594 114.2L41.6457 114.441H41.4906L33.2375 107.101V112.977C33.2375 113.39 33.4155 113.695 33.7716 113.89C33.9324 113.982 34.1047 114.028 34.2885 114.028H34.6159V114.2H28.3097V114.028H28.6371C28.9242 114.028 29.1712 113.93 29.378 113.735C29.5847 113.528 29.6881 113.275 29.6881 112.977V104.034C29.6881 103.23 29.6307 102.593 29.5158 102.122L29.4641 101.881H29.6364L37.8896 109.221V103.362C37.8781 103.064 37.769 102.817 37.5622 102.621C37.3554 102.415 37.1085 102.311 36.8213 102.311H36.4939V102.139H42.8001V102.311H42.49Z" fill="white"/>
<path d="M54.9155 103.741C56.1331 104.798 56.7418 106.274 56.7418 108.169C56.7418 110.065 56.1331 111.547 54.9155 112.615C53.7094 113.672 52.0266 114.2 49.8671 114.2H43.3369V114.028H43.5609C43.8596 114.028 44.1123 113.924 44.319 113.718C44.5373 113.499 44.6521 113.241 44.6636 112.942V103.293C44.6636 103.018 44.5488 102.788 44.319 102.604C44.1008 102.409 43.8481 102.311 43.5609 102.311H43.3541L43.3369 102.139H49.8671C52.0266 102.139 53.7094 102.673 54.9155 103.741ZM48.1958 103V113.338H49.5225C50.5907 113.338 51.4293 112.885 52.0381 111.977C52.6469 111.058 52.9512 109.789 52.9512 108.169C52.9512 106.55 52.6469 105.286 52.0381 104.379C51.4293 103.46 50.5907 103 49.5225 103H48.1958Z" fill="white"/>
<path d="M57.7209 114.028C58.0195 114.028 58.2722 113.924 58.479 113.718C58.6972 113.499 58.8121 113.241 58.8236 112.942V103.38C58.8121 103.081 58.6972 102.828 58.479 102.621C58.2722 102.415 58.0195 102.311 57.7209 102.311H57.4969V102.139H63.6825V102.311H63.4585C63.1598 102.311 62.9014 102.415 62.6831 102.621C62.4764 102.828 62.3672 103.081 62.3557 103.38V112.942C62.3557 113.241 62.4649 113.499 62.6831 113.718C62.9014 113.924 63.1598 114.028 63.4585 114.028H63.6825V114.2H57.4969V114.028H57.7209Z" fill="white"/>
<path d="M64.4431 108.152C64.4431 106.854 64.7417 105.734 65.339 104.792C65.9363 103.851 66.7978 103.133 67.9235 102.639C69.0607 102.145 70.4506 101.898 72.0932 101.898C73.7358 101.898 75.1774 102.162 76.4179 102.69L76.2456 105.981H76.0906C75.7574 104.821 75.275 103.994 74.6432 103.5C74.0115 103.006 73.2246 102.759 72.2827 102.759C71.0077 102.759 70.0141 103.23 69.3019 104.172C68.5898 105.114 68.2337 106.429 68.2337 108.118C68.2337 109.795 68.561 111.116 69.2158 112.081C69.882 113.046 70.8009 113.545 71.9726 113.58C73.328 113.58 74.3101 113.258 74.9189 112.615C75.4933 112.018 75.9412 110.869 76.2629 109.169H76.4007L76.8142 112.305C75.9642 113.729 74.3561 114.435 71.9898 114.424C69.6351 114.424 67.7857 113.878 66.4418 112.787C65.1093 111.684 64.4431 110.139 64.4431 108.152ZM90.4771 114.028H90.6149V114.2H84.0847V114.028H84.2398C84.4925 114.028 84.682 113.953 84.8084 113.804C84.9348 113.643 84.9979 113.499 84.9979 113.373C84.9979 113.235 84.9692 113.092 84.9118 112.942L84.2398 111.34H80.5526L79.8634 112.942C79.806 113.092 79.7772 113.212 79.7772 113.304C79.7772 113.396 79.7945 113.499 79.8289 113.614C79.8749 113.718 79.961 113.815 80.0874 113.907C80.2252 113.987 80.3688 114.028 80.5181 114.028H80.6732V114.2H76.8309V114.028H76.986C77.2502 114.028 77.5086 113.953 77.7613 113.804C78.0255 113.643 78.2438 113.407 78.4161 113.097L82.4307 104.293C83.0395 103.006 83.3668 102.15 83.4128 101.725H83.5678L89.0297 113.08C89.3973 113.712 89.8798 114.028 90.4771 114.028ZM80.9316 110.478H83.878L82.4307 107.032L80.9316 110.478Z" fill="white"/>
<path d="M95.978 102.983V112.959C95.9894 113.258 96.0986 113.511 96.3053 113.718C96.5236 113.924 96.782 114.028 97.0807 114.028H97.3047V114.2H91.1191V114.028H91.3431C91.6417 114.028 91.8945 113.924 92.1012 113.718C92.3195 113.511 92.4343 113.264 92.4458 112.977V102.983H90.74C90.0508 102.995 89.511 103.202 89.1204 103.604C88.7299 103.994 88.5346 104.534 88.5346 105.223V105.344L88.3623 105.361V101.812C88.5231 101.881 88.8103 101.949 89.2238 102.018C89.6488 102.087 90.0394 102.122 90.3954 102.122H98.0283C98.3844 102.122 98.7692 102.087 99.1827 102.018C99.5963 101.949 99.8892 101.881 100.061 101.812V105.361L99.8892 105.344V105.223C99.8892 104.293 99.5446 103.638 98.8554 103.259C98.5223 103.087 98.126 102.995 97.6665 102.983H95.978ZM100.962 114.028C101.26 114.028 101.513 113.924 101.72 113.718C101.938 113.499 102.053 113.241 102.064 112.942V103.397C102.053 103.029 101.898 102.736 101.599 102.518C101.415 102.38 101.203 102.311 100.962 102.311H100.738V102.139H108.371C108.727 102.139 109.111 102.105 109.525 102.036C109.95 101.967 110.249 101.898 110.421 101.829V105.378H110.249V105.24C110.249 104.321 109.915 103.678 109.249 103.311C108.928 103.127 108.543 103.029 108.095 103.018H105.596V107.825H107.475C108.026 107.813 108.474 107.635 108.818 107.291C109.163 106.935 109.335 106.481 109.335 105.93V105.861H109.508V110.651H109.335V110.564C109.335 110.025 109.163 109.582 108.818 109.238C108.474 108.882 108.032 108.698 107.492 108.686H105.596V113.321H107.716C108.554 113.321 109.295 113.046 109.938 112.494C110.582 111.943 111.035 111.179 111.3 110.203H111.472L110.817 114.2H100.738V114.028H100.962ZM122.154 110.306C122.154 111.696 121.66 112.735 120.673 113.425C119.685 114.102 118.37 114.441 116.727 114.441C115.774 114.441 114.935 114.338 114.211 114.131C113.488 113.913 112.965 113.643 112.643 113.321C112.54 113.069 112.488 112.799 112.488 112.511C112.488 112.213 112.511 111.926 112.557 111.65C112.684 110.972 112.896 110.444 113.195 110.065H113.35C113.338 110.134 113.333 110.208 113.333 110.289C113.333 111.139 113.666 111.903 114.332 112.58C115.01 113.247 115.929 113.58 117.089 113.58C117.87 113.58 118.467 113.419 118.881 113.097C119.306 112.764 119.518 112.391 119.518 111.977C119.518 111.552 119.375 111.19 119.087 110.892C118.8 110.593 118.335 110.295 117.692 109.996L114.883 108.686C114.091 108.33 113.516 107.831 113.16 107.187C112.873 106.682 112.73 106.125 112.73 105.516C112.73 104.276 113.149 103.334 113.987 102.69C114.688 102.162 115.618 101.898 116.779 101.898C117.537 101.898 118.507 101.955 119.69 102.07H121.034L120.655 104.879H120.483C120.483 104.247 120.236 103.736 119.742 103.345C119.248 102.955 118.616 102.759 117.847 102.759C117.089 102.759 116.497 102.891 116.072 103.156C115.659 103.42 115.435 103.77 115.4 104.207C115.354 104.746 115.699 105.206 116.434 105.585C116.56 105.654 116.727 105.729 116.934 105.809L120.156 107.308C121.488 107.917 122.154 108.916 122.154 110.306Z" fill="white"/>
<path d="M31.3518 99.52V99.3477H31.5414C31.7826 99.3477 31.9664 99.2845 32.0927 99.1582C32.3224 98.9399 32.4373 98.7044 32.4373 98.4517V90.2675C32.4373 90.0033 32.3454 89.785 32.1616 89.6127C31.9893 89.4404 31.7826 89.3543 31.5414 89.3543H31.3518V89.182H38.0715C38.3587 89.182 38.6803 89.1533 39.0364 89.0958C39.3925 89.0384 39.6395 88.981 39.7773 88.9235V92.18H39.605V92.0939C39.605 91.4276 39.4269 90.9107 39.0709 90.5432C38.7263 90.1756 38.2323 89.9861 37.5891 89.9746H35.8144V94.0236H37.1411C37.6465 94.0121 38.0543 93.8456 38.3644 93.524C38.6861 93.1908 38.8469 92.7658 38.8469 92.2489V92.2145H39.0192V96.6598H38.8469V96.5909C38.8469 96.0855 38.6861 95.6662 38.3644 95.3331C38.0543 95 37.6465 94.8334 37.1411 94.8334H35.8144V98.7274H37.4685C38.1577 98.7274 38.7837 98.4747 39.3465 97.9693C39.9094 97.4639 40.2942 96.7747 40.501 95.9017H40.656L40.1736 99.52H31.3518ZM49.7568 96.0395C49.7568 97.3031 49.3031 98.2507 48.3957 98.8825C47.5916 99.4453 46.4774 99.7268 45.053 99.7268C44.203 99.7268 43.4908 99.6349 42.9165 99.4511C42.3537 99.2558 41.9631 99.0203 41.7449 98.7446C41.6415 98.5034 41.5898 98.2507 41.5898 97.9865C41.5898 97.7223 41.6128 97.4696 41.6587 97.2284C41.7851 96.6196 41.9861 96.1429 42.2618 95.7983H42.3652C42.3652 95.8557 42.3652 95.9074 42.3652 95.9534C42.3652 96.723 42.6408 97.4122 43.1922 98.021C43.755 98.6298 44.5304 98.9342 45.5182 98.9342C46.1041 98.9342 46.5463 98.8021 46.845 98.5379C47.1436 98.2737 47.2929 97.9693 47.2929 97.6247C47.2929 97.2801 47.1551 96.9757 46.8794 96.7115C46.6152 96.4473 46.1787 96.1831 45.5699 95.9189L43.7608 95.0747C43.0256 94.7645 42.4858 94.3108 42.1412 93.7135C41.877 93.254 41.7449 92.7486 41.7449 92.1972C41.7449 92.0135 41.7564 91.8297 41.7793 91.6459C42.032 89.8655 43.1233 88.9752 45.053 88.9752C45.6963 88.9752 46.5635 89.0269 47.6548 89.1303H48.8092L48.3957 91.6459H48.2923C48.2923 91.083 48.0855 90.6351 47.672 90.3019C47.27 89.9573 46.7645 89.785 46.1558 89.785C44.9841 89.785 44.3581 90.1641 44.2777 90.9222C44.2432 91.2898 44.3811 91.5827 44.6912 91.801C44.9324 91.9618 45.2655 92.1283 45.6905 92.3006L47.9132 93.3172C48.522 93.5814 48.9815 93.949 49.2916 94.4199C49.6018 94.8909 49.7568 95.4307 49.7568 96.0395Z" fill="white"/>
<path d="M62.2914 92.1456H62.1191V92.0594C62.1305 91.1749 61.8204 90.5661 61.1886 90.233C60.89 90.0607 60.5224 89.9746 60.0859 89.9746H58.8109V98.4517C58.8109 98.7044 58.897 98.9169 59.0693 99.0892C59.2531 99.2615 59.4714 99.3477 59.7241 99.3477H59.8964V99.52H54.3656V99.3477H54.5379C54.7791 99.3477 54.9858 99.2615 55.1581 99.0892C55.3419 98.9169 55.4338 98.7044 55.4338 98.4517V89.9746H54.176C53.1882 89.9861 52.5564 90.3881 52.2807 91.1807C52.1888 91.4449 52.1429 91.7378 52.1429 92.0594V92.1456H51.9706V88.9063C52.1199 88.9637 52.3726 89.0212 52.7287 89.0786C53.0848 89.1361 53.4064 89.1648 53.6936 89.1648H60.5684C60.867 89.1648 61.2059 89.1361 61.5849 89.0786C61.964 89.0212 62.1995 88.9637 62.2914 88.9063V92.1456Z" fill="white"/>
<path d="M73.9169 99.3477H74.0547V99.52H67.9898V99.3477H68.1276C68.3573 99.3477 68.5239 99.2903 68.6273 99.1754C68.7421 99.049 68.7996 98.9342 68.7996 98.8308C68.7996 98.7159 68.7709 98.5953 68.7134 98.469L68.2138 97.3318H65.0262L64.5093 98.5207C64.4634 98.624 64.4404 98.7274 64.4404 98.8308C64.4404 98.9342 64.4921 99.049 64.5955 99.1754C64.7103 99.2903 64.8826 99.3477 65.1124 99.3477H65.233V99.52H61.6836V99.3477H61.8214C62.0626 99.3477 62.3039 99.2788 62.5451 99.1409C62.7978 99.0031 62.9931 98.7906 63.1309 98.5034L66.6803 90.8533C67.2431 89.6242 67.5418 88.8604 67.5762 88.5617H67.7141L72.5729 98.469C72.8716 99.0548 73.3196 99.3477 73.9169 99.3477ZM65.3536 96.5564H67.8692L66.6114 93.6618L65.3536 96.5564Z" fill="white"/>
<path d="M83.8314 92.1456H83.6591V92.0594C83.6706 91.1749 83.3604 90.5661 82.7287 90.233C82.43 90.0607 82.0624 89.9746 81.626 89.9746H80.3509V98.4517C80.3509 98.7044 80.4371 98.9169 80.6094 99.0892C80.7932 99.2615 81.0114 99.3477 81.2641 99.3477H81.4364V99.52H75.9056V99.3477H76.0779C76.3191 99.3477 76.5259 99.2615 76.6982 99.0892C76.882 98.9169 76.9739 98.7044 76.9739 98.4517V89.9746H75.7161C74.7282 89.9861 74.0964 90.3881 73.8208 91.1807C73.7289 91.4449 73.6829 91.7378 73.6829 92.0594V92.1456H73.5106V88.9063C73.66 88.9637 73.9127 89.0212 74.2687 89.0786C74.6248 89.1361 74.9465 89.1648 75.2336 89.1648H82.1084C82.407 89.1648 82.7459 89.1361 83.125 89.0786C83.504 89.0212 83.7395 88.9637 83.8314 88.9063V92.1456Z" fill="white"/>
<path d="M85.6118 99.52V99.3477H85.8014C86.0426 99.3477 86.2264 99.2845 86.3527 99.1582C86.5825 98.9399 86.6973 98.7044 86.6973 98.4517V90.2675C86.6973 90.0033 86.6054 89.785 86.4216 89.6127C86.2493 89.4404 86.0426 89.3543 85.8014 89.3543H85.6118V89.182H92.3315C92.6187 89.182 92.9403 89.1533 93.2964 89.0958C93.6525 89.0384 93.8995 88.981 94.0373 88.9235V92.18H93.865V92.0939C93.865 91.4276 93.687 90.9107 93.3309 90.5432C92.9863 90.1756 92.4923 89.9861 91.8491 89.9746H90.0744V94.0236H91.4011C91.9065 94.0121 92.3143 93.8456 92.6244 93.524C92.9461 93.1908 93.1069 92.7658 93.1069 92.2489V92.2145H93.2792V96.6598H93.1069V96.5909C93.1069 96.0855 92.9461 95.6662 92.6244 95.3331C92.3143 95 91.9065 94.8334 91.4011 94.8334H90.0744V98.7274H91.7285C92.4177 98.7274 93.0437 98.4747 93.6066 97.9693C94.1694 97.4639 94.5542 96.7747 94.761 95.9017H94.916L94.4336 99.52H85.6118Z" fill="white"/>
<mask id="mask1_135_40" style="mask-type:luminance" maskUnits="userSpaceOnUse" x="5" y="90" width="25" height="7">
<path d="M29.65 90.79H5.28998V96.92H29.65V90.79Z" fill="white"/>
</mask>
<g mask="url(#mask1_135_40)">
<path d="M29.65 90.79H5.28998V96.92H29.65V90.79Z" fill="url(#paint1_linear_135_40)"/>
</g>
<mask id="mask2_135_40" style="mask-type:luminance" maskUnits="userSpaceOnUse" x="5" y="117" width="118" height="4">
<path d="M122.26 117.77H5.28998V120.51H122.26V117.77Z" fill="white"/>
</mask>
<g mask="url(#mask2_135_40)">
<path d="M122.26 117.77H5.28998V120.51H122.26V117.77Z" fill="url(#paint2_linear_135_40)"/>
</g>
<mask id="mask3_135_40" style="mask-type:luminance" maskUnits="userSpaceOnUse" x="97" y="90" width="25" height="7">
<path d="M121.94 90.79H97.58V96.92H121.94V90.79Z" fill="white"/>
</mask>
<g mask="url(#mask3_135_40)">
<path d="M121.94 90.79H97.58V96.92H121.94V90.79Z" fill="url(#paint3_linear_135_40)"/>
</g>
</g>
<defs>
<linearGradient id="paint0_linear_135_40" x1="21.91" y1="41.79" x2="105.33" y2="41.79" gradientUnits="userSpaceOnUse">
<stop stop-color="#E8C055"/>
<stop offset="0.03" stop-color="#A47732"/>
<stop offset="0.12" stop-color="#5F2D0F"/>
<stop offset="0.23" stop-color="#A06C24"/>
<stop offset="0.33" stop-color="#E1AB39"/>
<stop offset="0.38" stop-color="#F0D571"/>
<stop offset="0.52" stop-color="#FFFFAA"/>
<stop offset="0.6" stop-color="#F0D572"/>
<stop offset="0.65" stop-color="#E1AB39"/>
<stop offset="0.74" stop-color="#A06C24"/>
<stop offset="0.88" stop-color="#5F2D0F"/>
<stop offset="0.96" stop-color="#A37632"/>
<stop offset="1" stop-color="#E8C055"/>
</linearGradient>
<linearGradient id="paint1_linear_135_40" x1="5.28998" y1="93.85" x2="29.66" y2="93.85" gradientUnits="userSpaceOnUse">
<stop stop-color="#E8C055"/>
<stop offset="0.03" stop-color="#A47732"/>
<stop offset="0.12" stop-color="#5F2D0F"/>
<stop offset="0.23" stop-color="#A06C24"/>
<stop offset="0.33" stop-color="#E1AB39"/>
<stop offset="0.38" stop-color="#F0D571"/>
<stop offset="0.52" stop-color="#FFFFAA"/>
<stop offset="0.6" stop-color="#F0D572"/>
<stop offset="0.65" stop-color="#E1AB39"/>
<stop offset="0.74" stop-color="#A06C24"/>
<stop offset="0.88" stop-color="#5F2D0F"/>
<stop offset="0.96" stop-color="#A37632"/>
<stop offset="1" stop-color="#E8C055"/>
</linearGradient>
<linearGradient id="paint2_linear_135_40" x1="5.28998" y1="119.14" x2="122.26" y2="119.14" gradientUnits="userSpaceOnUse">
<stop stop-color="#E8C055"/>
<stop offset="0.03" stop-color="#A47732"/>
<stop offset="0.12" stop-color="#5F2D0F"/>
<stop offset="0.23" stop-color="#A06C24"/>
<stop offset="0.33" stop-color="#E1AB39"/>
<stop offset="0.38" stop-color="#F0D571"/>
<stop offset="0.52" stop-color="#FFFFAA"/>
<stop offset="0.6" stop-color="#F0D572"/>
<stop offset="0.65" stop-color="#E1AB39"/>
<stop offset="0.74" stop-color="#A06C24"/>
<stop offset="0.88" stop-color="#5F2D0F"/>
<stop offset="0.96" stop-color="#A37632"/>
<stop offset="1" stop-color="#E8C055"/>
</linearGradient>
<linearGradient id="paint3_linear_135_40" x1="97.58" y1="93.85" x2="121.94" y2="93.85" gradientUnits="userSpaceOnUse">
<stop stop-color="#E8C055"/>
<stop offset="0.03" stop-color="#A47732"/>
<stop offset="0.12" stop-color="#5F2D0F"/>
<stop offset="0.23" stop-color="#A06C24"/>
<stop offset="0.33" stop-color="#E1AB39"/>
<stop offset="0.38" stop-color="#F0D571"/>
<stop offset="0.52" stop-color="#FFFFAA"/>
<stop offset="0.6" stop-color="#F0D572"/>
<stop offset="0.65" stop-color="#E1AB39"/>
<stop offset="0.74" stop-color="#A06C24"/>
<stop offset="0.88" stop-color="#5F2D0F"/>
<stop offset="0.96" stop-color="#A37632"/>
<stop offset="1" stop-color="#E8C055"/>
</linearGradient>
<clipPath id="clip0_135_40">
<rect width="122.56" height="120.51" fill="white"/>
</clipPath>
</defs>
</svg>
